<?xml version="1.0" encoding="utf-8"?>
<!-- Generator: Adobe Illustrator 16.0.3, SVG Export Plug-In . SVG Version: 6.00 Build 0)  -->
<!DOCTYPE svg PUBLIC "-//W3C//DTD SVG 1.1//EN" "http://www.w3.org/Graphics/SVG/1.1/DTD/svg11.dtd">
<svg version="1.1" id="Capa_1" xmlns="http://www.w3.org/2000/svg" xmlns:xlink="http://www.w3.org/1999/xlink" x="0px" y="0px"
	 width="170.25px" height="60.13px" viewBox="0 0 170.25 60.13" enable-background="new 0 0 170.25 60.13" xml:space="preserve">
<rect fill="none" width="171.556" height="60.131"/>
<path fill="#FFFFFF" d="M46.555,14.145c-0.628-0.772-1.332-1.514-2.122-2.226c-3.875-3.486-8.549-5.231-14.023-5.231
	s-10.15,1.745-14.024,5.231c-3.875,3.49-5.811,7.697-5.811,12.625s1.937,9.139,5.811,12.625c3.874,3.489,8.549,5.231,14.024,5.231
	v-7.143c-3.28,0-6.083-1.048-8.41-3.144c-1.322-1.19-2.274-2.523-2.855-4h23.417c-0.16-0.945-0.245-1.918-0.245-2.925
	C42.315,20.983,43.731,17.303,46.555,14.145 M19.144,20.972c0.581-1.475,1.534-2.808,2.855-3.999c2.327-2.095,5.13-3.143,8.41-3.143
	c3.278,0,6.083,1.048,8.41,3.143c1.322,1.19,2.274,2.523,2.855,3.999H19.144z"/>
<path fill="#FFFFFF" d="M70.559,32.761c-2.327,2.096-5.13,3.142-8.41,3.142s-6.083-1.046-8.41-3.142
	c-2.327-2.095-3.49-4.62-3.49-7.57c0-2.953,1.164-5.477,3.49-7.57c2.327-2.096,5.13-3.143,8.41-3.143s6.083,1.047,8.41,3.143
	c0.714,0.642,1.322,1.32,1.825,2.035l6.823-3.678c-0.846-1.215-1.851-2.357-3.015-3.429c-3.888-3.476-8.568-5.213-14.042-5.213
	c-5.474,0-10.149,1.745-14.024,5.23c-0.566,0.511-1.086,1.039-1.57,1.58c2.455,3.01,3.688,6.475,3.688,10.399
	c0,1.237-0.119,2.429-0.357,3.57h-7.325c0.629,3.689,2.482,6.927,5.565,9.7c3.875,3.489,8.55,5.231,14.024,5.231
	c5.474,0,10.155-1.748,14.042-5.248c1.164-1.047,2.169-2.181,3.015-3.394l-6.823-3.676C71.881,31.44,71.273,32.118,70.559,32.761"/>
<path fill="#FFFFFF" d="M101.375,43.046c-5.475,0-10.15-1.742-14.025-5.23c-3.874-3.486-5.81-7.697-5.81-12.626
	c0-4.928,1.936-9.134,5.81-12.625c3.875-3.485,8.551-5.229,14.025-5.229c5.473,0,10.147,1.744,14.023,5.229
	c3.871,3.49,5.811,7.697,5.811,12.625c0,4.929-1.939,9.14-5.811,12.626C111.522,41.304,106.848,43.046,101.375,43.046
	 M101.375,14.477c-3.28,0-6.084,1.048-8.41,3.143c-2.327,2.095-3.491,4.619-3.491,7.57c0,2.953,1.164,5.477,3.491,7.572
	c2.326,2.096,5.13,3.142,8.41,3.142c3.278,0,6.082-1.046,8.409-3.142c2.326-2.095,3.49-4.619,3.49-7.572
	c0-2.952-1.164-5.475-3.49-7.57C107.457,15.524,104.653,14.477,101.375,14.477"/>
<path fill="#FFFFFF" d="M154.879,25.189c0-2.952-1.163-5.475-3.49-7.57c-2.327-2.095-5.131-3.143-8.408-3.143
	c-3.28,0-6.084,1.048-8.41,3.143c-2.328,2.095-3.492,4.619-3.492,7.57v17.856h-7.933V7.335h7.933v3.535
	c3.412-2.357,7.378-3.535,11.902-3.535c5.473,0,10.146,1.745,14.022,5.23c3.872,3.49,5.811,7.697,5.811,12.625v17.856h-7.935V25.189
	z"/>
<path fill="#FFFFFF" d="M39.925,38.798c0,1.989-1.791,3.603-4,3.603c-2.209,0-4-1.613-4-3.603c0-1.988,1.792-3.602,4-3.602
	C38.135,35.196,39.925,36.81,39.925,38.798"/>
<path fill="#FFFFFF" d="M16.989,50.382c-0.559-0.446-1.324-0.69-2.059-0.69c-1.751,0-3.086,1.314-3.086,2.871
	c0,1.538,1.324,2.853,3.065,2.853c0.766,0,1.5-0.261,2.08-0.727v1.033c-0.599,0.318-1.366,0.495-2.05,0.495
	c-2.226,0-4.069-1.595-4.069-3.626c0-2.078,1.854-3.7,4.153-3.7c0.682,0,1.376,0.15,1.966,0.475V50.382z"/>
<path fill="#FFFFFF" d="M26.576,52.554c0,2.087-1.832,3.663-4.09,3.663c-2.256,0-4.088-1.576-4.088-3.663
	c0-2.014,1.852-3.663,4.088-3.663C24.722,48.891,26.576,50.54,26.576,52.554 M25.602,52.554c0-1.548-1.284-2.843-3.116-2.843
	c-1.833,0-3.117,1.295-3.117,2.843c0,1.604,1.429,2.842,3.117,2.842C24.173,55.396,25.602,54.157,25.602,52.554"/>
<polygon fill="#FFFFFF" points="28.22,48.703 34.081,54.23 34.081,49.041 35.053,49.041 35.053,56.357 29.193,50.83 29.193,56.067 
	28.22,56.067 "/>
<path fill="#FFFFFF" d="M40.704,50.373c-0.29-0.438-0.662-0.662-1.252-0.662c-0.622,0-1.305,0.383-1.305,0.997
	c0,0.55,0.601,0.839,1.088,1.007l0.558,0.195c1.107,0.391,1.936,0.941,1.936,2.116c0,1.277-1.098,2.19-2.494,2.19
	c-1.265,0-2.248-0.84-2.414-1.966l0.984-0.188c-0.01,0.773,0.673,1.333,1.512,1.333c0.838,0,1.439-0.635,1.439-1.37
	c0-0.755-0.673-1.082-1.346-1.334l-0.539-0.204c-0.89-0.345-1.698-0.802-1.698-1.78c0-1.136,1.119-1.817,2.299-1.817
	c0.87,0,1.584,0.383,2.009,1.063L40.704,50.373z"/>
<polygon fill="#FFFFFF" points="45.693,56.067 44.72,56.067 44.72,49.842 42.866,49.842 42.866,49.039 47.546,49.039 47.546,49.842 
	45.693,49.842 "/>
<path fill="#FFFFFF" d="M53.965,56.067h-1.181l-2.298-2.973h-0.404v2.973h-0.973v-7.026h1.18c0.693,0,1.439,0.008,2.06,0.324
	c0.653,0.346,1.025,1.008,1.025,1.678c0,1.007-0.746,1.846-1.874,1.967L53.965,56.067z M50.082,52.368h0.311
	c0.994,0,2.07-0.17,2.07-1.287c0-1.1-1.16-1.258-2.123-1.258h-0.259V52.368z"/>
<path fill="#FFFFFF" d="M56.365,49.041v4.146c0,1.146,0.383,2.209,1.884,2.209c1.502,0,1.885-1.063,1.885-2.209v-4.146h0.973v4.444
	c0,1.547-1.066,2.731-2.858,2.731c-1.791,0-2.857-1.185-2.857-2.731v-4.444H56.365z"/>
<rect x="63.218" y="49.039" fill="#FFFFFF" width="0.975" height="7.028"/>
<polygon fill="#FFFFFF" points="67.773,51.427 67.752,51.427 66.841,56.067 65.837,56.067 67.432,48.742 70.113,54.277 
	72.793,48.742 74.389,56.067 73.384,56.067 72.473,51.427 72.452,51.427 70.113,56.217 "/>
<path fill="#FFFFFF" d="M83.685,52.554c0,2.087-1.833,3.663-4.09,3.663c-2.256,0-4.089-1.576-4.089-3.663
	c0-2.014,1.852-3.663,4.089-3.663C81.831,48.891,83.685,50.54,83.685,52.554 M82.711,52.554c0-1.548-1.284-2.843-3.116-2.843
	c-1.833,0-3.117,1.295-3.117,2.843c0,1.604,1.429,2.842,3.117,2.842C81.282,55.396,82.711,54.157,82.711,52.554"/>
<path fill="#FFFFFF" d="M88.89,50.373c-0.29-0.438-0.662-0.662-1.252-0.662c-0.622,0-1.305,0.383-1.305,0.997
	c0,0.55,0.601,0.839,1.089,1.007l0.559,0.195c1.106,0.391,1.937,0.941,1.937,2.116c0,1.277-1.099,2.19-2.495,2.19
	c-1.264,0-2.248-0.84-2.414-1.966l0.984-0.188c-0.012,0.773,0.673,1.333,1.511,1.333c0.839,0,1.439-0.635,1.439-1.37
	c0-0.755-0.673-1.082-1.346-1.334l-0.54-0.204c-0.89-0.345-1.696-0.802-1.696-1.78c0-1.136,1.118-1.817,2.298-1.817
	c0.87,0,1.585,0.383,2.009,1.063L88.89,50.373z"/>
<polygon fill="#FFFFFF" points="97.668,56.067 96.694,56.067 96.694,49.842 94.841,49.842 94.841,49.039 99.52,49.039 99.52,49.842 
	97.668,49.842 "/>
<path fill="#FFFFFF" d="M101.922,49.041v4.146c0,1.146,0.383,2.209,1.885,2.209s1.885-1.063,1.885-2.209v-4.146h0.973v4.444
	c0,1.547-1.066,2.731-2.857,2.731c-1.792,0-2.857-1.185-2.857-2.731v-4.444H101.922z"/>
<path fill="#FFFFFF" d="M112.275,50.373c-0.291-0.438-0.664-0.662-1.254-0.662c-0.622,0-1.305,0.383-1.305,0.997
	c0,0.55,0.601,0.839,1.088,1.007l0.559,0.195c1.107,0.391,1.937,0.941,1.937,2.116c0,1.277-1.099,2.19-2.495,2.19
	c-1.264,0-2.247-0.84-2.413-1.966l0.983-0.188c-0.009,0.773,0.674,1.333,1.513,1.333c0.837,0,1.438-0.635,1.438-1.37
	c0-0.755-0.672-1.082-1.346-1.334l-0.537-0.204c-0.89-0.345-1.699-0.802-1.699-1.78c0-1.136,1.118-1.817,2.3-1.817
	c0.868,0,1.583,0.383,2.008,1.063L112.275,50.373z"/>
<path fill="#FFFFFF" d="M122.418,50.373c-0.289-0.438-0.661-0.662-1.251-0.662c-0.623,0-1.305,0.383-1.305,0.997
	c0,0.55,0.6,0.839,1.086,1.007l0.559,0.195c1.109,0.391,1.937,0.941,1.937,2.116c0,1.277-1.097,2.19-2.495,2.19
	c-1.264,0-2.246-0.84-2.412-1.966l0.984-0.188c-0.011,0.773,0.674,1.333,1.512,1.333s1.438-0.635,1.438-1.37
	c0-0.755-0.672-1.082-1.345-1.334l-0.539-0.204c-0.89-0.345-1.698-0.802-1.698-1.78c0-1.136,1.118-1.817,2.299-1.817
	c0.87,0,1.583,0.383,2.008,1.063L122.418,50.373z"/>
<path fill="#FFFFFF" d="M126.146,49.041v4.146c0,1.146,0.382,2.209,1.883,2.209c1.502,0,1.884-1.063,1.884-2.209v-4.146h0.974v4.444
	c0,1.547-1.065,2.731-2.857,2.731c-1.79,0-2.857-1.185-2.857-2.731v-4.444H126.146z"/>
<polygon fill="#FFFFFF" points="133.029,49.041 137.221,49.041 137.221,49.841 134.002,49.841 134.002,51.809 137.127,51.809 
	137.127,52.609 134.002,52.609 134.002,55.265 137.221,55.265 137.221,56.067 133.029,56.067 "/>
<path fill="#FFFFFF" d="M139.126,48.703l5.858,5.527v-5.189h0.975v7.316l-5.86-5.527v5.237h-0.973V48.703z M140.563,47.921
	l0.03-0.047c0.281-0.363,0.57-0.708,1.119-0.708c0.353,0,0.652,0.111,0.921,0.243c0.271,0.13,0.52,0.252,0.746,0.252
	c0.3,0,0.519-0.233,0.663-0.448l0.487,0.363c-0.24,0.438-0.653,0.764-1.223,0.764c-0.289,0-0.579-0.12-0.859-0.241
	c-0.27-0.112-0.538-0.233-0.808-0.233c-0.259,0-0.486,0.233-0.591,0.429L140.563,47.921z"/>
<path fill="#FFFFFF" d="M155.771,52.554c0,2.087-1.83,3.663-4.089,3.663c-2.256,0-4.089-1.576-4.089-3.663
	c0-2.014,1.852-3.663,4.089-3.663C153.918,48.891,155.771,50.54,155.771,52.554 M154.798,52.554c0-1.548-1.283-2.843-3.116-2.843
	c-1.832,0-3.116,1.295-3.116,2.843c0,1.604,1.429,2.842,3.116,2.842S154.798,54.157,154.798,52.554"/>
<path fill="#FFFFFF" d="M160.977,50.373c-0.289-0.438-0.661-0.662-1.252-0.662c-0.621,0-1.305,0.383-1.305,0.997
	c0,0.55,0.601,0.839,1.089,1.007l0.559,0.195c1.106,0.391,1.937,0.941,1.937,2.116c0,1.277-1.099,2.19-2.495,2.19
	c-1.264,0-2.248-0.84-2.413-1.966l0.983-0.188c-0.011,0.773,0.673,1.333,1.512,1.333c0.838,0,1.438-0.635,1.438-1.37
	c0-0.755-0.673-1.082-1.346-1.334l-0.539-0.204c-0.89-0.345-1.697-0.802-1.697-1.78c0-1.136,1.118-1.817,2.299-1.817
	c0.869,0,1.584,0.383,2.009,1.063L160.977,50.373z"/>
<rect x="62.063" y="49.039" fill="#FFFFFF" width="3.329" height="0.77"/>
<rect x="62.063" y="55.297" fill="#FFFFFF" width="3.329" height="0.771"/>
</svg>
