<?xml version="1.0" encoding="utf-8"?>
<!-- Generator: Adobe Illustrator 16.0.3, SVG Export Plug-In . SVG Version: 6.00 Build 0)  -->
<!DOCTYPE svg PUBLIC "-//W3C//DTD SVG 1.1//EN" "http://www.w3.org/Graphics/SVG/1.1/DTD/svg11.dtd">
<svg version="1.1" id="Capa_1" xmlns="http://www.w3.org/2000/svg" xmlns:xlink="http://www.w3.org/1999/xlink" x="0px" y="0px"
	 width="252px" height="90.564px" viewBox="0 0 252 90.564" enable-background="new 0 0 252 90.564" xml:space="preserve">
<polygon fill="#10495E" points="58.839,53.214 59.156,52.858 58.839,52.682 "/>
<path fill="#10495E" d="M56.732,9.539C50.337,3.179,42.63,0,33.597,0c-9.03,0-16.74,3.181-23.13,9.539
	c-6.392,6.36-9.585,14.031-9.585,23.021c0,8.986,3.193,16.662,9.585,23.021c6.39,6.361,14.102,9.539,23.133,9.539V52.095
	c-5.409,0-10.033-1.912-13.872-5.729c-2.18-2.173-3.751-4.603-4.712-7.293h50.712c0.39-2.084,0.588-4.256,0.588-6.514
	C66.316,23.57,63.118,15.899,56.732,9.539 M15.016,26.044c0.961-2.688,2.532-5.121,4.712-7.292c3.839-3.82,8.463-5.73,13.872-5.73
	c5.409,0,10.034,1.91,13.872,5.73c2.182,2.17,3.751,4.604,4.71,7.292H15.016z"/>
<path fill="#99989D" d="M102.835,43.832l11.255,6.704c-1.396,2.214-3.053,4.279-4.973,6.189c-6.414,6.378-14.134,9.567-23.163,9.567
	c-9.031,0-16.743-3.173-23.134-9.537c-6.391-6.358-9.584-14.034-9.584-23.021c0-8.985,3.194-16.658,9.584-23.021
	c6.391-6.354,14.103-9.539,23.134-9.539c9.029,0,16.749,3.167,23.163,9.507c1.919,1.953,3.577,4.037,4.973,6.252l-11.255,6.71
	c-0.828-1.304-1.831-2.542-3.009-3.711c-3.84-3.818-8.464-5.729-13.871-5.729c-5.409,0-10.033,1.91-13.873,5.729
	c-3.838,3.82-5.758,8.421-5.758,13.807c0,5.383,1.92,9.983,5.758,13.805c3.84,3.821,8.464,5.729,13.873,5.729
	c5.409,0,10.033-1.908,13.871-5.729C101.005,46.372,102.008,45.133,102.835,43.832"/>
<path fill="#99989D" d="M150.658,66.295c-9.032,0-16.741-3.173-23.137-9.537c-6.39-6.358-9.583-14.033-9.583-23.021
	c0-8.985,3.194-16.657,9.583-23.021c6.396-6.354,14.104-9.539,23.137-9.539c9.029,0,16.736,3.181,23.132,9.539
	c6.388,6.363,9.586,14.035,9.586,23.021c0,8.987-3.198,16.662-9.586,23.021C167.395,63.118,159.686,66.295,150.658,66.295
	 M150.658,14.202c-5.41,0-10.036,1.908-13.876,5.729c-3.837,3.819-5.753,8.421-5.753,13.805c0,5.383,1.916,9.984,5.753,13.806
	c3.841,3.821,8.466,5.73,13.876,5.73c5.406,0,10.033-1.909,13.869-5.73c3.842-3.82,5.758-8.423,5.758-13.806
	s-1.916-9.983-5.758-13.805C160.689,16.108,156.063,14.202,150.658,14.202"/>
<path fill="#99989D" d="M238.915,33.736c0-5.385-1.921-9.983-5.763-13.807c-3.836-3.819-8.459-5.729-13.868-5.729
	c-5.411,0-10.033,1.908-13.874,5.729c-3.837,3.821-5.76,8.422-5.76,13.807v32.559h-13.086V1.177h13.086v6.446
	c5.633-4.298,12.174-6.446,19.634-6.446c9.028,0,16.737,3.184,23.13,9.539C248.805,17.08,252,24.752,252,33.738v32.557h-13.085
	V33.736z"/>
<path fill="#1F5C6F" d="M66.316,32.549c0-7.163-2.036-13.488-6.084-18.985c-4.658,5.766-6.994,12.484-6.994,20.167
	c0,1.835,0.14,3.613,0.407,5.34h12.083C66.119,36.983,66.316,34.807,66.316,32.549"/>
<path fill="#10495E" d="M49.297,58.55c0,3.626-2.957,6.564-6.599,6.564c-3.645,0-6.599-2.938-6.599-6.564s2.954-6.565,6.599-6.565
	C46.343,51.983,49.297,54.923,49.297,58.55"/>
<path fill="#1F5C6F" d="M11.465,79.671c-0.923-0.817-2.188-1.258-3.399-1.258c-2.888,0-5.09,2.395-5.09,5.231
	c0,2.808,2.186,5.199,5.058,5.199c1.26,0,2.474-0.474,3.433-1.323v1.891c-0.992,0.575-2.256,0.899-3.384,0.899
	c-3.671,0-6.711-2.905-6.711-6.612c0-3.791,3.058-6.746,6.849-6.746c1.127,0,2.271,0.271,3.248,0.862v1.854L11.465,79.671
	L11.465,79.671z"/>
<path fill="#1F5C6F" d="M27.276,83.63c0,3.806-3.024,6.679-6.748,6.679c-3.723,0-6.748-2.871-6.748-6.679
	c0-3.674,3.059-6.68,6.748-6.68C24.218,76.95,27.276,79.956,27.276,83.63 M25.67,83.63c0-2.824-2.117-5.187-5.142-5.187
	c-3.022,0-5.143,2.36-5.143,5.187c0,2.922,2.36,5.182,5.143,5.182C23.314,88.812,25.67,86.552,25.67,83.63"/>
<polygon fill="#1F5C6F" points="29.986,76.606 39.655,86.689 39.655,77.22 41.258,77.22 41.258,90.563 31.592,80.483 31.592,90.036 
	29.986,90.036 "/>
<path fill="#1F5C6F" d="M50.581,79.652c-0.479-0.801-1.094-1.209-2.067-1.209c-1.025,0-2.152,0.697-2.152,1.817
	c0,1.004,0.991,1.532,1.793,1.837l0.924,0.354c1.829,0.72,3.193,1.719,3.193,3.861c0,2.328-1.81,3.992-4.118,3.992
	c-2.083,0-3.707-1.528-3.979-3.589l1.624-0.339c-0.018,1.414,1.11,2.431,2.494,2.431s2.375-1.155,2.375-2.496
	c0-1.38-1.111-1.976-2.22-2.433l-0.89-0.375c-1.47-0.626-2.801-1.461-2.801-3.247c0-2.071,1.845-3.311,3.791-3.311
	c1.435,0,2.615,0.693,3.314,1.932L50.581,79.652z"/>
<polygon fill="#1F5C6F" points="58.809,90.036 57.204,90.036 57.204,78.681 54.147,78.681 54.147,77.221 61.869,77.221 
	61.869,78.681 58.809,78.681 "/>
<path fill="#1F5C6F" d="M72.455,90.036h-1.946l-3.794-5.42h-0.664v5.42h-1.606V77.219h1.946c1.146,0,2.376,0.021,3.4,0.598
	c1.076,0.629,1.69,1.838,1.69,3.06c0,1.839-1.23,3.37-3.092,3.586L72.455,90.036z M66.049,83.289h0.513
	c1.641,0,3.417-0.308,3.417-2.348c0-2.004-1.914-2.292-3.503-2.292H66.05L66.049,83.289L66.049,83.289z"/>
<path fill="#1F5C6F" d="M76.414,77.221v7.563c0,2.091,0.632,4.026,3.109,4.026c2.476,0,3.108-1.938,3.108-4.026v-7.563h1.606v8.109
	c0,2.819-1.76,4.979-4.714,4.979c-2.956,0-4.717-2.159-4.717-4.979v-8.109H76.414z"/>
<rect x="87.716" y="77.22" fill="#1F5C6F" width="1.606" height="12.816"/>
<polygon fill="#1F5C6F" points="95.23,81.572 95.196,81.572 93.692,90.036 92.036,90.036 94.666,76.676 99.091,86.772 
	103.514,76.676 106.146,90.036 104.488,90.036 102.986,81.572 102.951,81.572 99.091,90.307 "/>
<path fill="#1F5C6F" d="M121.479,83.63c0,3.806-3.022,6.679-6.745,6.679c-3.724,0-6.75-2.871-6.75-6.679
	c0-3.674,3.059-6.68,6.75-6.68C118.421,76.95,121.479,79.956,121.479,83.63 M119.873,83.63c0-2.824-2.118-5.187-5.139-5.187
	c-3.024,0-5.142,2.36-5.142,5.187c0,2.922,2.358,5.182,5.142,5.182C117.517,88.809,119.873,86.552,119.873,83.63"/>
<path fill="#1F5C6F" d="M130.064,79.652c-0.479-0.801-1.094-1.209-2.065-1.209c-1.028,0-2.153,0.697-2.153,1.817
	c0,1.004,0.992,1.532,1.794,1.837l0.92,0.354c1.828,0.72,3.192,1.719,3.192,3.861c0,2.328-1.81,3.992-4.112,3.992
	c-2.085,0-3.708-1.528-3.979-3.589l1.622-0.339c-0.017,1.414,1.112,2.431,2.492,2.431c1.385,0,2.373-1.155,2.373-2.496
	c0-1.38-1.106-1.976-2.219-2.433l-0.89-0.375c-1.47-0.626-2.8-1.461-2.8-3.247c0-2.071,1.842-3.311,3.792-3.311
	c1.433,0,2.61,0.693,3.31,1.932L130.064,79.652z"/>
<polygon fill="#1F5C6F" points="144.544,90.036 142.938,90.036 142.938,78.681 139.879,78.681 139.879,77.221 147.6,77.221 
	147.6,78.681 144.544,78.681 "/>
<path fill="#1F5C6F" d="M151.559,77.221v7.563c0,2.091,0.633,4.026,3.109,4.026c2.475,0,3.105-1.938,3.105-4.026v-7.563h1.607v8.108
	c0,2.82-1.761,4.979-4.717,4.979s-4.716-2.159-4.716-4.979v-8.108H151.559z"/>
<path fill="#1F5C6F" d="M168.639,79.652c-0.477-0.801-1.096-1.209-2.068-1.209c-1.024,0-2.15,0.697-2.15,1.817
	c0,1.004,0.99,1.532,1.789,1.837l0.924,0.354c1.827,0.72,3.193,1.719,3.193,3.861c0,2.328-1.813,3.992-4.117,3.992
	c-2.081,0-3.704-1.528-3.977-3.589l1.623-0.339c-0.02,1.414,1.106,2.431,2.494,2.431c1.381,0,2.371-1.155,2.371-2.496
	c0-1.38-1.109-1.976-2.22-2.433l-0.886-0.375c-1.473-0.626-2.805-1.461-2.805-3.247c0-2.071,1.844-3.311,3.793-3.311
	c1.435,0,2.61,0.693,3.313,1.932L168.639,79.652z"/>
<path fill="#1F5C6F" d="M185.372,79.652c-0.479-0.801-1.097-1.209-2.07-1.209c-1.022,0-2.151,0.697-2.151,1.817
	c0,1.004,0.992,1.532,1.793,1.837l0.925,0.354c1.827,0.72,3.194,1.719,3.194,3.861c0,2.328-1.813,3.992-4.119,3.992
	c-2.082,0-3.707-1.528-3.979-3.589l1.622-0.339c-0.017,1.414,1.108,2.431,2.495,2.431c1.383,0,2.376-1.155,2.376-2.496
	c0-1.38-1.11-1.976-2.224-2.433l-0.89-0.375c-1.468-0.626-2.801-1.461-2.801-3.247c0-2.071,1.849-3.311,3.792-3.311
	c1.436,0,2.613,0.693,3.313,1.932L185.372,79.652z"/>
<path fill="#1F5C6F" d="M191.514,77.221v7.563c0,2.091,0.633,4.026,3.109,4.026s3.105-1.938,3.105-4.026v-7.563h1.604v8.108
	c0,2.82-1.757,4.979-4.715,4.979c-2.955,0-4.718-2.159-4.718-4.979v-8.108H191.514z"/>
<polygon fill="#1F5C6F" points="202.868,77.221 209.787,77.221 209.787,78.681 204.477,78.681 204.477,82.268 209.633,82.268 
	209.633,83.729 204.477,83.729 204.477,88.577 209.787,88.577 209.787,90.036 202.868,90.036 "/>
<path fill="#1F5C6F" d="M212.93,76.606l9.663,10.08v-9.468h1.604V90.56l-9.663-10.078v9.554h-1.604V76.606L212.93,76.606z
	 M215.301,75.179l0.051-0.086c0.463-0.659,0.94-1.292,1.848-1.292c0.578,0,1.072,0.207,1.52,0.443c0.444,0.238,0.856,0.46,1.23,0.46
	c0.49,0,0.853-0.426,1.094-0.814l0.805,0.661c-0.396,0.799-1.078,1.396-2.019,1.396c-0.479,0-0.958-0.225-1.421-0.444
	c-0.441-0.202-0.887-0.422-1.331-0.422c-0.427,0-0.804,0.422-0.972,0.78L215.301,75.179z"/>
<path fill="#1F5C6F" d="M240.389,83.63c0,3.806-3.022,6.679-6.75,6.679c-3.72,0-6.744-2.871-6.744-6.679
	c0-3.674,3.062-6.68,6.744-6.68C237.33,76.95,240.389,79.956,240.389,83.63 M238.779,83.63c0-2.824-2.117-5.187-5.143-5.187
	c-3.023,0-5.145,2.36-5.145,5.187c0,2.922,2.357,5.182,5.145,5.182C236.427,88.812,238.779,86.552,238.779,83.63"/>
<path fill="#1F5C6F" d="M248.971,79.652c-0.476-0.801-1.091-1.209-2.063-1.209c-1.028,0-2.154,0.697-2.154,1.817
	c0,1.004,0.989,1.532,1.792,1.837l0.922,0.354c1.831,0.72,3.195,1.719,3.195,3.861c0,2.328-1.81,3.992-4.117,3.992
	c-2.083,0-3.706-1.528-3.981-3.589l1.625-0.339c-0.017,1.414,1.111,2.431,2.494,2.431c1.385,0,2.375-1.155,2.375-2.496
	c0-1.38-1.109-1.976-2.22-2.433l-0.889-0.375c-1.472-0.626-2.802-1.461-2.802-3.247c0-2.071,1.842-3.311,3.791-3.311
	c1.438,0,2.611,0.693,3.313,1.932L248.971,79.652z"/>
<rect x="85.813" y="77.221" fill="#1F5C6F" width="5.492" height="1.403"/>
<rect x="85.813" y="88.635" fill="#1F5C6F" width="5.492" height="1.403"/>
</svg>
