<?xml version="1.0" encoding="utf-8"?>
<!-- Generator: Adobe Illustrator 16.0.3, SVG Export Plug-In . SVG Version: 6.00 Build 0)  -->
<!DOCTYPE svg PUBLIC "-//W3C//DTD SVG 1.1//EN" "http://www.w3.org/Graphics/SVG/1.1/DTD/svg11.dtd">
<svg version="1.1" id="Capa_1" xmlns="http://www.w3.org/2000/svg" xmlns:xlink="http://www.w3.org/1999/xlink" x="0px" y="0px"
	 width="841.89px" height="595.28px" viewBox="0 0 841.89 595.28" enable-background="new 0 0 841.89 595.28" xml:space="preserve">
<g>
	<defs>
		<rect id="SVGID_1_" width="841.89" height="595.28"/>
	</defs>
	<clipPath id="SVGID_2_">
		<use xlink:href="#SVGID_1_"  overflow="visible"/>
	</clipPath>
	<g clip-path="url(#SVGID_2_)">
		<defs>
			<rect id="SVGID_3_" width="841.89" height="595.28"/>
		</defs>
		<clipPath id="SVGID_4_">
			<use xlink:href="#SVGID_3_"  overflow="visible"/>
		</clipPath>
		<g opacity="0.7" clip-path="url(#SVGID_4_)">
			<g>
				<defs>
					<rect id="SVGID_5_" width="841.89" height="595.28"/>
				</defs>
				<clipPath id="SVGID_6_">
					<use xlink:href="#SVGID_5_"  overflow="visible"/>
				</clipPath>
				<g clip-path="url(#SVGID_6_)">
					<defs>
						<rect id="SVGID_7_" width="841.89" height="595.28"/>
					</defs>
					<clipPath id="SVGID_8_">
						<use xlink:href="#SVGID_7_"  overflow="visible"/>
					</clipPath>
				</g>
			</g>
		</g>
	</g>
	<g clip-path="url(#SVGID_2_)">
		<defs>
			<path id="SVGID_9_" d="M180.086,216.826c-2.019,0-3.659,1.637-3.659,3.658V333.48c0,2.021,1.64,3.658,3.659,3.658h76.018
				c2.021,0,3.659-1.637,3.659-3.658v-19.753c0-2.019-1.638-3.658-3.659-3.658h-43.815c-2.02,0-3.659-1.638-3.659-3.657v-85.928
				c0-2.021-1.636-3.658-3.659-3.658H180.086z"/>
		</defs>
		<clipPath id="SVGID_10_">
			<use xlink:href="#SVGID_9_"  overflow="visible"/>
		</clipPath>
		
			<linearGradient id="SVGID_11_" gradientUnits="userSpaceOnUse" x1="0" y1="595.2803" x2="1" y2="595.2803" gradientTransform="matrix(112.2956 64.8339 -64.8339 112.2956 38756.2266 -66602.7578)">
			<stop  offset="0" style="stop-color:#DA0000"/>
			<stop  offset="0.3035" style="stop-color:#DF330C"/>
			<stop  offset="0.9953" style="stop-color:#ECB32A"/>
			<stop  offset="1" style="stop-color:#ECB42A"/>
		</linearGradient>
		<polygon clip-path="url(#SVGID_10_)" fill="url(#SVGID_11_)" points="124.331,307.061 238.929,373.224 311.859,246.904 
			197.261,180.741 		"/>
	</g>
	<g clip-path="url(#SVGID_2_)">
		<defs>
			<path id="SVGID_12_" d="M268.761,216.826c-2.021,0-3.658,1.637-3.658,3.658v113c0,2.021,1.636,3.657,3.658,3.657h24.884
				c2.021,0,3.657-1.636,3.657-3.657v-113c0-2.021-1.636-3.658-3.657-3.658H268.761z"/>
		</defs>
		<clipPath id="SVGID_13_">
			<use xlink:href="#SVGID_12_"  overflow="visible"/>
		</clipPath>
		
			<linearGradient id="SVGID_14_" gradientUnits="userSpaceOnUse" x1="0" y1="595.2803" x2="1" y2="595.2803" gradientTransform="matrix(73.9052 42.6692 -42.6692 73.9052 25644.3945 -43738.6445)">
			<stop  offset="0" style="stop-color:#E0711B"/>
			<stop  offset="0.1644" style="stop-color:#E48720"/>
			<stop  offset="0.5422" style="stop-color:#EDB62B"/>
			<stop  offset="0.8331" style="stop-color:#F3D232"/>
			<stop  offset="1" style="stop-color:#F5DD34"/>
		</linearGradient>
		<polygon clip-path="url(#SVGID_13_)" fill="url(#SVGID_14_)" points="213.005,307.063 289.252,351.084 349.4,246.905 
			273.153,202.884 		"/>
	</g>
	<g clip-path="url(#SVGID_2_)">
		<defs>
			<path id="SVGID_15_" d="M333.782,308.298V288.55c0-2.021,1.637-3.659,3.658-3.659h15.001c0.443,0,1.164,0.043,1.605,0.092
				c0,0,9.577,1.116,11.938,3.532c2.36,2.417,3.537,5.693,3.537,9.821c0,4.128-1.147,7.434-3.448,9.906
				c-2.3,2.481-12.027,3.621-12.027,3.621c-0.441,0.054-1.162,0.094-1.605,0.094H337.44
				C335.419,311.957,333.782,310.318,333.782,308.298 M333.782,257.875v-11.617c0-2.018,1.637-3.656,3.658-3.656h11.462
				c0.441,0,1.161,0.054,1.598,0.121c0,0,5.279,0.794,6.814,2.623c1.53,1.828,2.299,4.154,2.299,6.986
				c0,2.829-0.825,5.073-2.476,6.728c-1.654,1.65-6.988,2.366-6.988,2.366c-0.439,0.059-1.158,0.108-1.6,0.108H337.44
				C335.419,261.534,333.782,259.895,333.782,257.875 M306.301,217.123c-2.021,0-3.659,1.637-3.659,3.658v113
				c0,2.017,1.638,3.657,3.659,3.657h46.846c0.444,0,1.163-0.04,1.603-0.093c0,0,26.035-3.03,34.412-9.28
				c8.373-6.252,12.56-15.162,12.56-26.719c0-4.604-0.648-8.642-1.946-12.125c-1.298-3.475-3.07-6.514-5.306-9.11
				c-2.241-2.589-4.806-4.716-7.698-6.369c-0.911-0.52-1.839-1.002-2.789-1.45c-2.417-1.143-2.89-4.38-0.846-6.102
				c1.527-1.285,2.916-2.75,4.168-4.392c2.652-3.473,3.982-8.577,3.982-15.303c0-4.603-0.946-8.73-2.834-12.389
				c-1.889-3.653-4.541-6.719-7.961-9.198c-3.422-2.476-7.549-4.394-12.386-5.748s-10.261-2.037-16.277-2.037H306.301z"/>
		</defs>
		<clipPath id="SVGID_16_">
			<use xlink:href="#SVGID_15_"  overflow="visible"/>
		</clipPath>
		
			<linearGradient id="SVGID_17_" gradientUnits="userSpaceOnUse" x1="0" y1="595.2793" x2="1" y2="595.2793" gradientTransform="matrix(113.9973 65.8164 -65.8164 113.9973 39469.3867 -67618.8047)">
			<stop  offset="0" style="stop-color:#F6DF35"/>
			<stop  offset="0.194" style="stop-color:#F6DF35"/>
			<stop  offset="0.3409" style="stop-color:#F1E136"/>
			<stop  offset="0.5156" style="stop-color:#E3E537"/>
			<stop  offset="0.7044" style="stop-color:#CBED3A"/>
			<stop  offset="0.902" style="stop-color:#A9F93E"/>
			<stop  offset="1" style="stop-color:#96FF40"/>
		</linearGradient>
		<polygon clip-path="url(#SVGID_16_)" fill="url(#SVGID_17_)" points="250.544,307.359 376.952,380.341 453.82,247.202 
			327.412,174.22 		"/>
	</g>
	<g clip-path="url(#SVGID_2_)">
		<defs>
			<path id="SVGID_18_" d="M438.554,279.925v-32.666c0-2.021,1.641-3.658,3.659-3.658h7.46c0.441,0,1.165,0.027,1.605,0.06
				c0,0,5.957,0.442,8.445,1.451c2.493,1.005,4.539,2.4,6.144,4.177c1.599,1.774,2.757,3.879,3.469,6.304
				c0.711,2.434,1.068,5.125,1.068,8.088c0,5.924-1.515,10.727-4.537,14.393c-3.027,3.677-14.598,5.394-14.598,5.394
				c-0.438,0.063-1.155,0.117-1.597,0.117h-7.46C440.194,283.585,438.554,281.948,438.554,279.925 M410.01,216.529
				c-2.019,0-3.656,1.637-3.656,3.658v112.997c0,2.021,1.637,3.656,3.656,3.656h24.887c2.02,0,3.657-1.636,3.657-3.656v-20.288
				c0-2.019,1.641-3.658,3.659-3.658h6.317c1.275,0,2.462,0.666,3.126,1.756l14.669,24.092c0.664,1.092,1.848,1.755,3.126,1.755
				h26.187c2.876,0,4.628-3.163,3.101-5.601l-15.922-25.395c-1.056-1.686-0.574-3.904,1.091-4.994
				c5.588-3.661,9.963-8.326,13.124-13.992c3.714-6.663,5.57-14.356,5.57-23.085c0-6.727-1.123-12.944-3.359-18.673
				c-2.24-5.717-5.521-10.703-9.821-14.95c-4.305-4.244-9.581-7.573-15.832-9.992c-6.255-2.416-13.448-3.63-21.588-3.63H410.01z"/>
		</defs>
		<clipPath id="SVGID_19_">
			<use xlink:href="#SVGID_18_"  overflow="visible"/>
		</clipPath>
		
			<linearGradient id="SVGID_20_" gradientUnits="userSpaceOnUse" x1="0" y1="595.2803" x2="1" y2="595.2803" gradientTransform="matrix(119.501 68.9939 -68.9939 119.501 41464.1094 -70895.2109)">
			<stop  offset="0" style="stop-color:#96FF40"/>
			<stop  offset="0.0408" style="stop-color:#92F94B"/>
			<stop  offset="0.2944" style="stop-color:#7DD889"/>
			<stop  offset="0.5262" style="stop-color:#6DBDBA"/>
			<stop  offset="0.7284" style="stop-color:#61AADD"/>
			<stop  offset="0.8932" style="stop-color:#5A9EF3"/>
			<stop  offset="1" style="stop-color:#579AFB"/>
		</linearGradient>
		<polygon clip-path="url(#SVGID_19_)" fill="url(#SVGID_20_)" points="354.257,306.764 478.54,378.518 554.698,246.607 
			430.416,174.853 		"/>
	</g>
	<g clip-path="url(#SVGID_2_)">
		<defs>
			<path id="SVGID_21_" d="M604.741,218.778c-4.853,1.505-9.155,3.727-12.907,6.67c-3.754,2.941-6.73,6.61-8.92,10.998
				c-0.831,1.658-1.49,3.431-1.996,5.301c-0.426,1.58-1.877,2.667-3.517,2.667h-40.952c-2.023,0-3.662,1.636-3.662,3.658v15.042
				c0,2.022,1.639,3.658,3.662,3.658h44.043c1.35,0,2.575,0.756,3.227,1.939c1.158,2.115,2.53,4.067,4.13,5.843
				c2.596,2.892,5.689,5.375,9.27,7.452c3.58,2.082,11.025,4.912,11.025,4.912c0.414,0.156,1.094,0.401,1.513,0.541l12.334,4.166
				c0.423,0.142,1.102,0.387,1.514,0.544c0,0,6.095,2.335,8,3.78c1.904,1.444,2.856,3.443,2.856,5.974
				c0,3.354-1.301,5.746-3.897,7.193c-2.601,1.443-6.267,2.322-10.999,2.163c-16.121-0.527-20.436-12.361-21.578-18.052
				c-0.353-1.746-1.881-3.004-3.664-3.004h-57.776c-2.022,0-3.658,1.64-3.658,3.658v12.431c0,2.022,1.636,3.661,3.658,3.661h33.362
				c1.471,0,2.783,0.883,3.365,2.229c3.395,7.857,8.777,13.9,16.063,17.958c3.924,2.189,8.599,3.806,13.858,5.197
				c5.253,1.387,11.169,2.081,17.754,2.081c7.734,0,14.434-0.923,20.095-2.775c5.657-1.843,10.309-4.41,13.944-7.712
				c3.638-3.286,6.322-7.211,8.058-11.772c1.731-4.563,2.596-9.554,2.596-14.985c0-4.157-0.549-7.996-1.644-11.52
				c-1.1-3.52-2.86-6.755-5.285-9.697c-2.426-2.944-5.659-5.602-9.7-7.974c-4.044-2.364-14.146-6.204-14.146-6.204
				c-0.414-0.155-1.096-0.4-1.513-0.54l-14.071-4.692c-0.419-0.141-1.098-0.392-1.506-0.558c0,0-4.249-1.718-5.575-2.987
				c-1.332-1.265-1.993-3.052-1.993-5.371c0-2.306,0.952-4.24,2.86-5.804c1.904-1.558,4.761-2.337,8.574-2.337
				c4.733,0,8.544,0.779,11.431,2.337c1.916,1.037,3.727,2.285,5.439,3.752c1.484,1.271,3.695,1.182,5.046-0.231l13.135-13.772
				c1.361-1.428,1.369-3.698-0.038-5.086c-1.145-1.131-2.394-2.224-3.745-3.283c-2.37-1.847-5.108-3.494-8.228-4.937
				c-3.121-1.443-6.73-2.6-10.827-3.463c-4.101-0.866-8.753-1.297-13.948-1.297C614.612,216.529,609.589,217.277,604.741,218.778"/>
		</defs>
		<clipPath id="SVGID_22_">
			<use xlink:href="#SVGID_21_"  overflow="visible"/>
		</clipPath>
		
			<linearGradient id="SVGID_23_" gradientUnits="userSpaceOnUse" x1="0" y1="595.2803" x2="1" y2="595.2803" gradientTransform="matrix(127.4603 73.5892 -73.5892 127.4603 44342.6523 -75633.7969)">
			<stop  offset="0" style="stop-color:#60A8FB"/>
			<stop  offset="0.0069" style="stop-color:#60A6FB"/>
			<stop  offset="0.2646" style="stop-color:#616CEA"/>
			<stop  offset="0.5018" style="stop-color:#633DDE"/>
			<stop  offset="0.7109" style="stop-color:#631CD5"/>
			<stop  offset="0.8842" style="stop-color:#6407CF"/>
			<stop  offset="1" style="stop-color:#6400CD"/>
		</linearGradient>
		<polygon clip-path="url(#SVGID_22_)" fill="url(#SVGID_23_)" points="480.432,307.211 632.352,394.922 717.896,246.756 
			565.976,159.045 		"/>
	</g>
	<g clip-path="url(#SVGID_2_)">
		<text transform="matrix(1 0 0 1 171.9434 384.2939)"><tspan x="0" y="0" fill="#8159F7" font-family="'Gotham-Book'" font-size="30.8985" letter-spacing="6">de bullyi</tspan><tspan x="185.882" y="0" fill="#8159F7" font-family="'Gotham-Book'" font-size="30.8985" letter-spacing="6">n</tspan><tspan x="211.064" y="0" fill="#8159F7" font-family="'Gotham-Book'" font-size="30.8985" letter-spacing="6">g </tspan><tspan x="253.209" y="0" fill="#8159F7" font-family="'Gotham-Book'" font-size="30.8985" letter-spacing="6">h</tspan><tspan x="278.392" y="0" fill="#8159F7" font-family="'Gotham-Book'" font-size="30.8985" letter-spacing="6">om</tspan><tspan x="340.095" y="0" fill="#8159F7" font-family="'Gotham-Book'" font-size="30.8985" letter-spacing="6">o</tspan><tspan x="366.204" y="0" fill="#8159F7" font-family="'Gotham-Book'" font-size="30.8985" letter-spacing="6">fóbi</tspan><tspan x="450.864" y="0" fill="#8159F7" font-family="'Gotham-Book'" font-size="30.8985" letter-spacing="5">c</tspan><tspan x="474.193" y="0" fill="#8159F7" font-family="'Gotham-Book'" font-size="30.8985">o</tspan></text>
	</g>
</g>
</svg>
